<?xml version="1.0" encoding="utf-8"?>
<!-- Generator: Adobe Illustrator 19.2.0, SVG Export Plug-In . SVG Version: 6.00 Build 0)  -->
<svg version="1.1" id="Layer_1" xmlns="http://www.w3.org/2000/svg" xmlns:xlink="http://www.w3.org/1999/xlink" x="0px" y="0px"
	 viewBox="0 0 800 600" style="enable-background:new 0 0 800 600;" xml:space="preserve">
<style type="text/css">
	.st0{fill:none;}
	.st1{font-family:'NexaBold';}
	.st2{font-size:28.9088px;}
	.st3{letter-spacing:2;}
	.st4{fill:#0066FF;}
</style>
<g>
	<polygon points="703,289.2 714.8,303 724.7,303 724.7,303 709.7,286.5 723,271.8 723,271 713,271 703,284.4 703,258 694,258 
		694,303 703,303 	"/>
	<path class="st0" d="M565.3,278.1c-4.7,0-8.5,3.5-8.5,9.2c0,5.7,3.8,9,8.5,9c4.6,0,8.4-3.4,8.4-9
		C573.7,281.6,569.9,278.1,565.3,278.1z"/>
	<path d="M521,287.7c0-4.9,2.8-9.1,7.7-9.1c5.1,0,7.3,3.8,7.3,8.7V303h8v-15.8c0-10.2-6.4-16-14-16c-4.1,0-7.5,0.8-10.8,4l-0.6-5.3
		H512v33h9V287.7z"/>
	<path d="M556.8,310h-8c0,1,0.2,2,0.5,4h8.8C557.3,312,556.8,311,556.8,310z"/>
	<path d="M581.6,310.1c0-4.2-1.3-8-6.7-10.8c5.3-2.4,6.9-8.1,6.9-12.1c0-3.6-0.9-6.8-3.4-9.6l3.6-4.6l-5.9-4.5l-3.2,4.1
		c-2.2-1.5-4.9-1.8-7.5-1.8c-9.1,0-16.5,6.3-16.5,16.5c0,10.2,6.3,16.4,16.5,16.4c4,0,8.2,2,8.2,6.5c0,1.5-0.4,1.9-1.2,3.9h8.7
		C581.4,312,581.6,311.5,581.6,310.1z M565.3,296.3c-4.7,0-8.5-3.4-8.5-9c0-5.7,3.8-9.2,8.5-9.2c4.6,0,8.4,3.6,8.4,9.2
		C573.7,292.8,569.9,296.3,565.3,296.3z"/>
	<polygon points="635,296 610,296 610,258 601,258 601,303 635,303 	"/>
	<path d="M647.5,262c0-6-9.5-6-9.5,0C638,269,647.5,269,647.5,262z"/>
	<rect x="639" y="270" width="9" height="33"/>
	<path d="M662,287.7c0-4.9,3.8-9.1,8.7-9.1c5.1,0,8.3,3.8,8.3,8.7V303h9v-15.8c0-10.2-7.1-16-14.8-16c-4.1,0-7.9,0.8-11.2,4l-1-5.3
		H656v33h6V287.7z"/>
	<g>
		<path class="st0" d="M323.3,278.7c-4.4,0-7.9,1.3-9.1,6.3h17.5C331.3,280,328,278.7,323.3,278.7z"/>
		<path d="M243,303h7v-37h16v-8c-15,0-26,0-38,0v8h15V303z"/>
		<path d="M278,287.7c0-4.9,3.1-8.9,7.8-8.9c4.3,0,7.2,2.5,7.2,8.4V303h8v-15.8c0-9.6-3.8-15.8-13.1-15.8c-3.7,0-6.9,1.1-9.9,4.9
			V258h-8v45h8V287.7z"/>
		<path d="M323.7,305.2c4.9,0,10.6-1.7,14-5.3l-5.1-5.1c-1.8,1.9-5.7,3.1-8.7,3.1c-5.7,0-9.2-3.9-9.7-6.9h25.4
			c1.3-14-5.5-20.2-16.4-20.2c-10.6,0-17.3,7.1-17.3,17C305.8,298.3,312.5,305.2,323.7,305.2z M323.3,278.7c4.6,0,7.9,1.3,8.4,6.3
			h-17.5C315.4,280,319,278.7,323.3,278.7z"/>
		<polygon points="370,270.8 383.1,291 384.8,291 402,270.9 402,303 409,303 409,258 398.6,258 384.2,277.9 369.7,258 362,258 
			362,303 370,303 		"/>
		<path d="M424.9,262c0-6-9.5-6-9.5,0C415.4,269,424.9,269,424.9,262z"/>
		<rect x="417" y="270" width="8" height="33"/>
		<path d="M444.8,298.4c-3.6-0.1-8.9-2-11.2-4.6l-4,5.7c4.7,4.9,9.9,5.8,15,5.8c9.3,0,14-4.9,14-10.7c0-8.6-7.8-10-13.9-10.4
			c-4.2-0.3-6.1-1.5-6.1-3.6c0-2,2.1-3.2,5.9-3.2c3.1,0,5.7,0.7,8,2.9l4.5-5.3c-3.8-3.3-7.6-4.3-12.7-4.3c-5.9,0-13.7,2.6-13.7,10.2
			c0,7.4,7.3,9.6,13.5,10.1c4.6,0.3,6.5,1.2,6.5,3.4C450.7,296.9,447.9,298.5,444.8,298.4z"/>
		<path d="M477.2,298.4c-3.6-0.1-8.9-2-11.2-4.6l-4,5.7c4.7,4.9,9.9,5.8,15,5.8c9.3,0,14-4.9,14-10.7c0-8.6-7.8-10-13.9-10.4
			c-4.2-0.3-6.1-1.5-6.1-3.6c0-2,2.1-3.2,5.9-3.2c3.1,0,5.7,0.7,8,2.9l4.5-5.3c-3.8-3.3-7.6-4.3-12.7-4.3c-5.9,0-13.7,2.6-13.7,10.2
			c0,7.4,7.3,9.6,13.5,10.1c4.6,0.3,6.5,1.2,6.5,3.4C483.1,296.9,480.3,298.5,477.2,298.4z"/>
		<rect x="498" y="270" width="7" height="33"/>
		<path d="M505,262c0-6-9.5-6-9.5,0C495.5,269,505,269,505,262z"/>
		<polygon points="725,315 581.1,315 572.4,315 558.1,315 549.3,315 238,315 238,319 551.1,319 579.4,319 725,319 		"/>
		<text transform="matrix(1 0 0 1 232.8162 345.674)" class="st1 st2 st3">Re-Inventing Entrepreneurship</text>
		<g>
			<path class="st0" d="M111.9,227C97.5,241,84,256.3,69,271.3c0,19.8,0,40,0,59.5C84,346,97.7,360,112,375c19.7,0,39.4,0,59.2,0
				c14.3-15,29.7-29.1,43.7-44.3c0-19.5,0-39.7,0-59.1c-14-15.3-29.4-30.6-43.7-44.6C151.4,227,131.7,227,111.9,227z M166.2,248.4
				c0.6-0.8,1-1.7,1.4-2.5c2.6,1,12.3,11.3,12.6,13.4c-1.2,1.1-2.4,2.4-4,3.9c-1.7-1.7-3.1-3.2-4.6-4.7c-1.5-1.6-3-3.2-4.6-4.7
				C165.2,252.2,164.8,250.5,166.2,248.4z M191.4,277c-0.4,0.2-1.3,0.1-1.6-0.2c-3.6-3.6-7.1-7.2-10.7-10.9c1.4-1.6,2.7-3.1,3.7-4.2
				c4.4,4.6,8.4,8.9,12.7,13.3C194.2,275.6,192.8,276.4,191.4,277z M196.6,280.8c0.9,1.5,1,37.4,0.1,40c-4.4,0.2-5.9-1.2-5.9-5.5
				c0-9.6,0-19.1,0.1-28.7C190.9,282.2,192.1,281,196.6,280.8z M141.4,335.6c-19,0-34.4-15.8-34.3-35.2
				c0.1-19.2,15.5-34.9,34.4-34.8c18.8,0,34.4,16,34.2,35.1C175.7,320,160.3,335.6,141.4,335.6z M156.9,349.8
				c-5.1,0.2-9.9,0.3-13.9-0.1c0-2.4,0-4.2,0-6.3c4,0,7-0.1,10.6,0.1c0.6,0,1.4,1,1.8,1.7C156,346.4,156.3,347.8,156.9,349.8z
				 M139,343c0,2,0,4,0,7c-5,0-9.6,0-14.3,0c0.6-3,1.1-4,1.7-7C130.4,343,135,343,139,343z M85,279.7c2.1,0.7,3.6,1.1,5.1,1.8
				c0.5,0.2,1.1,1.2,1.1,1.8c0.1,4.7,0,9.4,0,14.1c0,0.2-0.2-0.4-0.4,0.6c-1.8,0-3.7,0-6,0C84.8,292,84.6,286.1,85,279.7z M86,302
				c2,0,3.1,0,5.2,0c0,5,0.1,10.3-0.1,15.3c0,0.7-0.9,1.7-1.7,2.2c-1,0.6-2.4,0.9-3.4,1.4C86,314.5,86,308,86,302z M91.6,324
				c3.7,4,7.4,8,11,12c-1,1.2-2.3,2.7-3.8,4.4c-4.4-4.6-8.4-8.8-12.8-13.4C88.2,325.8,89.8,325,91.6,324z M157.1,251.7
				c-0.6,1.9-1.1,3.3-1.8,5.3c-9.3,0-18.5,0-28,0c-0.6-2-1.2-3.4-1.8-5.1C127.2,250.8,153.7,250.7,157.1,251.7z M144,247
				c0-1,0-3,0-5c6,0,11.2,0,17.6,0c-0.7,2-1.3,4-1.9,5C154.3,247,150,247,144,247z M140,248c-5,0-11,0-16.6,0c-0.7-2-1.3-4-2-6
				c6.4,0,12.6,0,18.6,0C140,244,140,246,140,248z M122.4,261c-0.7,0.9-1.2,1.7-1.9,2.4c-4.8,5-9.7,10-14.6,15
				c-3.2,3.3-4.6,3.3-8.2,0c0.4-1.6,19-21.1,22-22.8C120.7,257.4,121.5,259.1,122.4,261z M99.8,286c0.5,0.2,0.8,0.9,0.8,1.4
				c0.1,3.5-0.1,6.5-0.1,10.5c-2.2,0-3.4,0-5.4,0c0-5,0-8.8,0-13.8C97,284.9,98.3,285.4,99.8,286z M94.7,302c1.9,0,3.7,0,5.7,0
				c0,3,0.1,7.7-0.1,11.4c0,0.6-0.9,1.5-1.6,1.9c-1.2,0.6-2.5,0.8-3.7,1.2C93.9,314.7,93.7,305,94.7,302z M95.7,323.6
				c2-1.1,3.6-2,5.7-3.2c6.9,6.5,13.2,13.3,19.8,20.2c-1,2.1-1.8,3.7-2.9,6.1C110.4,339,103.3,331.4,95.7,323.6z M169.8,269.7
				c-2.7-2.8-5.4-5.3-7.8-8.1c-0.5-0.5-0.1-2.1,0.2-3c0.4-1.1,1.1-2.1,1.9-3.6c3.9,3.4,7.1,6.7,10.3,10.5
				C172.5,267.2,171.2,268.4,169.8,269.7z M176.4,268.1c3.4,3.6,6.4,6.7,9.6,10.1c-1.4,0.8-3,1.7-5.1,2.9c-2.8-2.8-5.6-5.5-8.3-8.2
				C174.1,271,175.3,269.5,176.4,268.1z M180.5,320.4c1.5,0.8,3.1,1.6,4.6,2.4c-7.5,7.6-14.7,15.1-22.3,22.8
				c-0.8-1.5-1.6-3.1-2.3-4.6C161.1,338.8,177.8,321.5,180.5,320.4z M182.2,314.6c-1.1-4-0.4-8.6-0.7-12.6c2.3,0,4.5,0,6.5,0
				c0,5,0,10,0,14.8C186,316.2,184.1,315.2,182.2,314.6z M187.7,298c-2.3,0-4.1,0-6.1,0c0-3-0.1-7,0-10.6c0.1-1.8,3.1-3.4,6.2-3.2
				C188.1,288.9,188.4,294,187.7,298z M165.1,233c-0.8,2-1.2,4.1-2,5.7c-0.3,0.5-1.4,0.9-2.1,0.9c-13,0-26,0.1-39,0.1
				c-1.5,0-2.5-0.7-2.9-2.2c-0.4-1.3-0.8-3.4-1.4-4.4C133.7,233,149.1,233,165.1,233z M119,251.1c-0.7,0.9-1.3,1.7-2,2.5
				c-6.8,7.1-13.7,14.1-20.5,21.2c-3,3.1-5,3.1-8.6-0.6c9.2-9.4,18.4-18.8,28.2-28.7C117.2,247.6,118.1,249.2,119,251.1z
				 M112.3,236.8c0.9,1.8,1.8,3.5,2.6,5c-4.8,4.8-9.4,9.3-14.2,14.1c-0.9-0.9-2.3-2.2-3.7-3.6C102.2,247,107.1,242,112.3,236.8z
				 M95,255.4c0.8,1,2,2.5,3.7,4.6c-1.5,1.4-3.2,2.8-4.8,4.3c-2.3,2.3-4.7,4.6-6.9,7.1c-1.6,1.8-3.2,2.3-5.3,0.9
				c-0.8-0.5-1.6-0.9-2.5-1.4C84.6,265.7,89.6,260.8,95,255.4z M75.7,276.9c0.3-0.1,0.6-0.2,0.9-0.4c1.5,0.5,3.1,0.8,4.4,1.6
				c0.7,0.5,1.1,1.8,1.1,2.8c0.1,5.6,0.1,11.3,0.1,16.9c0,6.8,0.1,13.7,0.1,20.5c0,4.2-1.4,5.6-6.4,5.7
				C75.8,308.4,75.9,292.6,75.7,276.9z M77.5,330.9c1.8-1,3.4-1.9,5.5-3c4.8,4.4,9.1,9.3,14.1,14.3c-1.7,1.7-3.1,3-3.9,3.9
				C87.9,340.9,82.9,336.1,77.5,330.9z M110.3,364.7c-0.6-0.5-1.4-0.9-1.9-1.5c-3.9-3.9-7.7-7.9-11.5-11.8c-1.8-1.8-1.8-2.4,0.1-4.2
				c0.8-0.8,1.7-1.5,2.8-2.5c2.4,2.5,4.6,4.9,6.9,7.2c1.4,1.5,2.8,3,4.3,4.4C113.8,359.3,113.7,361.5,110.3,364.7z M101.2,342.6
				c1.7-1.5,3.2-2.7,3.9-3.3c4.1,3.9,7.9,7.6,11.9,11.5c-0.7,1.5-1.5,3.2-2.6,5.4C109.7,351.8,105.7,347.5,101.2,342.6z M139,368
				c-2,1-19.9,0.8-21.8-0.4c0.5-1.6,0.8-3.2,1.5-4.8c0.2-0.4,1.2-0.9,1.7-0.9c6-0.1,11.6,0,18.6,0C139,364.1,139,366.1,139,368z
				 M120.3,358.6c0.6-1.8,1.1-3.5,1.7-5.5c1.1-0.1,2.2-0.3,3.2-0.3c9.7,0,19.3,0,29,0c4.5,0,5.5,1.1,5.8,5.9
				C158.4,359.7,123,359.8,120.3,358.6z M143,367.7c0-1.9,0-4.7,0-6.7c3,0,5.1,0,7.9,0c2.7,0,5.3,0.5,8,0.4c2.2-0.1,3.6,0.9,4,3.2
				c0.2,0.9,1,1.9,1.3,2.9C162.3,368.9,144,368.9,143,367.7z M163.5,350.1c8.6-8.7,17.1-17.4,25.7-26.1c2.2,1.1,3.8,1.9,6,3.1
				c-9.5,10-18.9,19.3-28.6,29.1C165.4,353.8,164.6,352.2,163.5,350.1z M170.4,365.2c-1.1-2.3-2.1-3.9-2.5-5.5
				c-0.2-0.8,0.6-2.1,1.3-2.8c7.5-7.7,15.1-15.4,22.7-23.1c1.2-1.3,2.6-2.4,3.7-3.8c1.5-1.9,3.2-2.1,5.1-0.8c0.8,0.6,1.7,1,3.1,1.9
				C192.8,342.6,181.9,353.6,170.4,365.2z M206,277.3c0,15.7,0,31.3,0,47.5c-1-0.6-3.9-1.1-5.9-1.7c-0.1-1.2-0.4-2.4-0.4-3.5
				c0-12.4,0-24.8,0-37.2C199.8,278.7,202,276.9,206,277.3z M204.5,270.6c-1.6,0.9-3.2,1.8-5.3,2.9c-4.7-4.5-9.2-9.3-13.7-13.9
				c1.6-1.8,2.9-3.3,3.8-4.4C194.4,260.5,199.3,265.4,204.5,270.6z M186.7,252.4c-1.3,1.4-2.6,2.8-3.5,3.8
				c-4.9-4.8-9.6-9.4-14.4-14.1c0.8-1.7,1.6-3.4,2.3-5C173.1,237.2,185.6,249.7,186.7,252.4z"/>
			<path d="M173.7,218.2c-0.3,0-0.8-0.1-1.2-0.1c-20.6,0-41.2,0-61.7,0.1c-1.1,0-2.5,0.8-3.4,1.6c-15,15.2-29.8,30.4-44.8,45.6
				c-1.2,1.3-1.7,2.6-1.7,4.3c0,20.6,0.1,41.2,0,61.7c0,1.8,0.5,3.1,1.8,4.3C74.6,348,86.5,359.7,98.4,372c3.4,3.5,6.7,7,9.6,10
				c22.5,0,44.1,0,65.9,0c16-16,32.1-31.8,48.1-48.2c0-22.2,0-44.5,0-66.2C205,251,189.7,234.6,173.7,218.2z M215,330.7
				c-14,15.2-29.4,29.3-43.7,44.3c-19.8,0-39.5,0-59.2,0c-14.3-15-28-29-43-44.2c0-19.5,0-39.7,0-59.5c15-15,28.5-30.3,42.9-44.3
				c19.8,0,39.6,0,59.5,0c14.2,14,29.7,29.3,43.7,44.6C215,291,215,311.2,215,330.7z"/>
			<path class="st4" d="M195.7,330c-1.1,1.4-2.5,2.5-3.7,3.8c-7.6,7.7-15.2,15.4-22.7,23.1c-0.7,0.7-1.5,2-1.3,2.8
				c0.4,1.7,1.4,3.2,2.5,5.5c11.4-11.6,22.3-22.7,33.5-34.1c-1.4-0.9-2.3-1.3-3.1-1.9C198.9,327.9,197.3,328.2,195.7,330z"/>
			<path class="st4" d="M122,239.7c13,0,26,0,39,0c0.7,0,1.8-0.5,2.1-1c0.8-1.6,1.3-3.7,2-5.7c-16,0-31.4,0-47.4,0
				c0.6,1,1,3.2,1.4,4.5C119.6,239,120.5,239.7,122,239.7z"/>
			<path class="st4" d="M199.8,282.4c0,12.4,0,24.8,0,37.2c0,1.1,0.2,2.3,0.4,3.5c2,0.6,4.9,1.1,5.9,1.7c0-16.2,0-31.8,0-47.5
				C202,276.9,199.8,278.7,199.8,282.4z"/>
			<path class="st4" d="M82.4,318.4c0-6.8-0.1-13.7-0.1-20.5c0-5.6,0-11.3-0.1-16.9c0-1-0.4-2.4-1.1-2.8c-1.3-0.8-2.9-1.1-4.4-1.6
				c-0.3,0.1-0.6,0.2-0.9,0.4c0.2,15.8,0,31.5,0.3,47.3C81.1,324,82.5,322.7,82.4,318.4z"/>
			<path d="M190.8,315.4c0,4.3,1.5,5.7,5.9,5.5c0.9-2.6,0.8-38.6-0.1-40c-4.6,0.2-5.8,1.4-5.8,5.9
				C190.8,296.3,190.8,305.8,190.8,315.4z"/>
			<path d="M96.5,274.7c6.9-7.1,13.7-14.1,20.5-21.2c0.7-0.7,1.3-1.6,2-2.5c-1-1.8-1.8-3.5-3-5.7c-9.7,9.9-18.9,19.3-28.2,28.7
				C91.5,277.8,93.5,277.8,96.5,274.7z"/>
			<path d="M154.2,352.8c-9.7,0-19.3,0-29,0c-1,0-2.1,0.2-3.2,0.3c-0.6,2-1.1,3.7-1.7,5.5c2.7,1.2,38.2,1.1,39.7,0.1
				C159.7,353.9,158.7,352.8,154.2,352.8z"/>
			<path d="M189.2,324c-8.6,8.7-17.1,17.4-25.7,26.1c1.1,2.1,1.9,3.7,3.1,6c9.7-9.8,19.1-19.1,28.6-29.1
				C193,325.9,191.4,325.1,189.2,324z"/>
			<path d="M185.1,322.8c-1.5-0.8-3.1-1.6-4.6-2.4c-2.7,1.2-19.4,18.4-20,20.6c0.7,1.5,1.6,3.1,2.3,4.6
				C170.4,337.9,177.6,330.4,185.1,322.8z"/>
			<path d="M127.3,257c9.4,0,18.7,0,28,0c0.6-2,1.2-3.4,1.8-5.3c-3.4-1-29.9-0.9-31.6,0.2C126.1,253.6,126.7,255,127.3,257z"/>
			<path d="M121.2,340.6c-6.6-6.8-12.9-13.7-19.8-20.2c-2.1,1.2-3.7,2.1-5.7,3.2c7.6,7.8,14.7,15.4,22.5,23.1
				C119.3,344.3,120.2,342.7,121.2,340.6z"/>
			<path d="M97.8,278.5c3.6,3.3,5,3.3,8.2,0c4.9-5,9.7-10,14.6-15c0.7-0.7,1.2-1.6,1.9-2.4c-0.9-1.9-1.8-3.6-2.7-5.4
				C116.8,257.3,98.2,276.8,97.8,278.5z"/>
			<path class="st4" d="M158.9,361.4c-2.7,0.1-5.2-0.4-7.9-0.4c-2.8,0-4.9,0-7.9,0c0,2,0,4.9,0,6.7c1,1.2,19.3,1.2,21.2-0.1
				c-0.3-1-0.9-2.1-1.1-3C162.7,362.3,161.1,361.3,158.9,361.4z"/>
			<path class="st4" d="M168.8,242.1c4.8,4.7,9.5,9.3,14.4,14.1c0.9-1,2.2-2.4,3.5-3.8c-1.1-2.7-13.6-15.2-15.6-15.4
				C170.3,238.7,169.6,240.4,168.8,242.1z"/>
			<path class="st4" d="M87.1,271.4c2.2-2.5,4.5-4.8,6.9-7.1c1.5-1.5,3.2-2.9,4.8-4.3c-1.7-2.1-2.9-3.6-3.7-4.6
				c-5.4,5.4-10.4,10.3-15.7,15.5c0.9,0.5,1.7,0.9,2.5,1.4C83.9,273.7,85.5,273.3,87.1,271.4z"/>
			<path class="st4" d="M120.3,361.9c-0.5,0-1.4,0.5-1.6,0.9c-0.7,1.6-0.9,3.3-1.4,4.8c1.9,1.2,19.7,1.4,21.7,0.4c0-1.9,0-3.9,0-6.1
				C132,361.9,126.3,361.9,120.3,361.9z"/>
			<path class="st4" d="M114.9,241.7c-0.8-1.4-1.7-3.2-2.6-5c-5.2,5.3-10.1,10.2-15.2,15.5c1.4,1.4,2.8,2.7,3.7,3.6
				C105.5,251.1,110.1,246.5,114.9,241.7z"/>
			<path class="st4" d="M106.6,352c-2.2-2.3-4.4-4.7-6.9-7.2c-1.1,1-2,1.7-2.8,2.5c-1.8,1.7-1.8,2.4-0.1,4.2
				c3.8,4,7.6,7.9,11.5,11.8c0.6,0.6,1.3,1,1.9,1.5c3.3-3.2,3.4-5.4,0.6-8.4C109.5,354.9,108.1,353.4,106.6,352z"/>
			<path class="st4" d="M83,327.9c-2.1,1.1-3.7,2-5.5,3c5.3,5.2,10.3,10,15.6,15.1c0.8-0.8,2.2-2.2,3.9-3.9
				C92.1,337.2,87.8,332.3,83,327.9z"/>
			<path class="st4" d="M199.2,273.6c2.1-1.2,3.7-2.1,5.3-2.9c-5.2-5.2-10.1-10.2-15.2-15.4c-1,1.1-2.3,2.6-3.8,4.4
				C190,264.3,194.5,269.1,199.2,273.6z"/>
			<path d="M90.8,298c0.2-1,0.4-0.4,0.4-0.6c0-4.7,0.1-9.4,0-14.2c0-0.6-0.6-1.5-1.1-1.7c-1.4-0.7-3-1.2-5.1-1.8
				c-0.4,6.4-0.2,12.3-0.2,18.3C87,298,88.9,298,90.8,298z"/>
			<path d="M167,253.8c1.6,1.4,3.1,3.1,4.6,4.7c1.5,1.5,2.9,3,4.6,4.7c1.5-1.5,2.8-2.7,4-3.9c-0.4-2.2-10.1-12.4-12.6-13.4
				c-0.5,0.8-0.9,1.7-1.4,2.5C164.8,250.5,165.2,252.2,167,253.8z"/>
			<path d="M91.1,317.3c0.2-4.9,0.1-10.3,0.1-15.3c-2.1,0-3.2,0-5.2,0c0,6,0,12.5,0,18.8c1-0.5,2.4-0.8,3.4-1.4
				C90.3,319,91.1,318,91.1,317.3z"/>
			<path d="M105.2,339.3c-0.8,0.6-2.2,1.9-3.9,3.3c4.5,4.8,8.5,9.2,13.2,13.6c1.1-2.3,1.9-4,2.6-5.4
				C113,346.9,109.2,343.2,105.2,339.3z"/>
			<path d="M102.6,336c-3.7-4-7.3-7.9-11-12c-1.8,0.9-3.4,1.8-5.6,2.9c4.4,4.6,8.5,8.8,12.8,13.4C100.3,338.7,101.6,337.2,102.6,336
				z"/>
			<path d="M179.1,265.8c3.6,3.7,7.1,7.4,10.7,10.9c0.3,0.3,1.2,0.4,1.6,0.2c1.4-0.6,2.8-1.4,4-2c-4.2-4.5-8.3-8.7-12.7-13.3
				C181.8,262.8,180.5,264.2,179.1,265.8z"/>
			<path d="M161.6,242c-6.4,0-11.6,0-17.6,0c0,2,0,4,0,5c6,0,10.3,0,15.7,0C160.4,246,160.9,244,161.6,242z"/>
			<path d="M123.4,248c5.6,0,11.6,0,16.6,0c0-2,0-4,0-6c-6,0-12.3,0-18.6,0C122.1,244,122.7,246,123.4,248z"/>
			<path d="M153.6,343.5c-3.6-0.2-6.6-0.1-10.6-0.1c0,2.1,0,3.9,0,6.3c4,0.4,8.8,0.2,13.9,0.1c-0.6-2-0.9-3.4-1.5-4.6
				C155,344.4,154.2,343.5,153.6,343.5z"/>
			<path d="M95.1,316.5c1.2-0.4,2.5-0.6,3.7-1.2c0.7-0.3,1.6-1.3,1.6-1.9c0.2-3.7,0.1-8.4,0.1-11.4c-2.1,0-3.9,0-5.7,0
				C93.7,305,93.9,314.7,95.1,316.5z"/>
			<path d="M164,255c-0.8,1.5-1.5,2.5-1.9,3.6c-0.3,1-0.6,2.5-0.2,3c2.4,2.8,5.1,5.3,7.8,8.1c1.4-1.4,2.7-2.5,4.5-4.3
				C171,261.7,167.8,258.4,164,255z"/>
			<path d="M187.9,284.5c-3.2-0.3-6.1,0.9-6.2,2.7c-0.2,3.6,0,7.8,0,10.8c2,0,3.8,0,6.1,0C188.4,294,188.1,289.1,187.9,284.5z"/>
			<path d="M188,302c-2,0-4.2,0-6.5,0c0.2,4-0.5,8.6,0.7,12.6c1.9,0.6,3.8,1.6,5.8,2.2C188,312,188,307,188,302z"/>
			<path d="M95,298c2,0,3.3,0,5.4,0c0-4,0-7.1,0-10.5c0-0.5-0.1-1.3-0.6-1.5c-1.5-0.7-2.8-1.1-4.8-1.8C95,289.2,95,293,95,298z"/>
			<path d="M186,278.2c-3.2-3.3-6.2-6.5-9.6-10.1c-1.1,1.3-2.3,2.8-3.8,4.7c2.7,2.7,5.5,5.4,8.3,8.2C183,279.9,184.6,279,186,278.2z
				"/>
			<path d="M139,350c0-3,0-5,0-7c-4,0-8.6,0-12.6,0c-0.6,3-1.1,4-1.7,7C129.4,350,134,350,139,350z"/>
			<g>
				<path class="st4" d="M128.8,262.6c1,0.5,1.7,1,2,1.8c0.3,0.7,0.8,0.8,1.5,0.9c5.8,0.1,11.6,0.1,17.3,0.3c0.9,0,1.4-0.2,2-1
					c1.8-2.6,5.6-2.4,7.1,0.4c0.5,1,0.6,2.1,0.3,3.1c-0.2,0.7,0,1.1,0.4,1.5c4.2,4.3,8.3,8.6,12.5,12.9c0.4,0.4,0.8,0.6,1.5,0.5
					c2.2-0.4,4.1,0.6,4.8,2.5c0.7,1.8,0,4-1.9,5.1c-0.5,0.3-0.8,0.6-0.8,1.2c-0.1,5.9-0.2,11.9-0.3,17.8c0,0.7,0.2,1.2,0.8,1.6
					c1.8,1.1,2.4,3.1,1.6,5c-0.8,1.9-2.7,2.9-4.7,2.4c-0.8-0.2-1.3-0.1-1.9,0.5c-3.3,3.3-6.7,6.6-10.1,9.8c-0.4,0.3-0.8,0.6-1.1,1
					c-1,1.2-2.3,2-1.8,4.1c0.4,1.6-1.3,3.4-2.8,3.9c-1.9,0.5-3.7-0.1-4.7-1.8c-0.4-0.8-0.9-1-1.8-1c-5.9,0-11.7-0.1-17.6-0.3
					c-0.7,0-1,0.2-1.4,0.7c-1.2,1.9-3.2,2.5-5.1,1.7c-1.9-0.8-2.8-2.7-2.4-5c0.1-0.5,0.1-1-0.3-1.4c-4.2-4.3-8.4-8.6-12.6-12.9
					c-0.4-0.5-0.8-0.6-1.5-0.4c-2.1,0.5-4-0.5-4.8-2.4c-0.8-1.9-0.1-4,1.8-5.1c0.7-0.4,0.9-0.9,0.9-1.6c0.1-5.9,0.1-11.9,0.2-17.8
					c0-0.7-0.4-1-0.9-1.3c-1.6-1.1-2.2-2.7-1.8-4.7c0.4-1.5,1.9-2.7,3.6-2.9c0.3,0,0.6-0.1,0.8,0c1.3,0.6,2.1-0.1,3-1
					c3.9-3.9,8-7.8,12-11.6c0.5-0.5,0.7-1,0.5-1.8c-0.4-1.7,0.2-3.1,1.5-4.2C126,262.1,127.5,262,128.8,262.6z M172.4,310.1
					c0.1-0.2,0.2-0.3,0.2-0.4c0.1-6,0.2-12.1,0.3-18.1c0-0.5-0.2-0.8-0.7-1.1c-2-1.2-2.6-2.8-1.9-5.1c0.1-0.5,0.1-0.8-0.2-1.1
					c-4.3-4.4-8.5-8.8-12.8-13.2c-0.2-0.2-0.4-0.6-0.7-0.4c-0.8,0.3-1.8,0.1-2.5,0.4c-0.6,0.3-0.6,1.3-0.9,1.9
					c0,0.1-0.1,0.2-0.1,0.3c-1.8,4.7-3.6,9.4-5.5,14c-0.3,0.8-0.3,1.2,0.5,1.7c1.5,1.1,1.9,3.3,1.1,5c-0.9,1.8-2.9,2.7-4.9,2.1
					c-1.7-0.5-3-2.2-3-4c0-1.9,1.4-3.7,3.3-3.9c1.2-0.1,1.6-0.8,2-1.8c1.8-4.7,3.6-9.3,5.4-13.9c0.4-1.1,1.1-2.2-0.3-3.1
					c-0.2-0.1-0.3-0.4-0.4-0.6c-0.2-0.6-0.7-0.7-1.2-0.7c-2.6,0-5.2-0.1-7.9-0.1c-3.3-0.1-6.7,0-10-0.2c-1.3-0.1-1.4,1-1.9,1.6
					c-0.4,0.5,0.3,0.8,0.6,1.1c1,1.1,2,2,3,3.1c0.5,0.5,0.8,0.6,1.6,0.3c1.8-0.8,3.9-0.2,5,1.4c1.2,1.7,1,3.9-0.4,5.3
					c-1.3,1.4-3.6,1.6-5.1,0.6c-1.8-1.2-2.5-3.2-1.6-5.2c0.3-0.7,0.2-1-0.3-1.4c-1-1-2-2-3-3c-0.8-0.8-1.5-1.5-2.7-1.1
					c-0.4,0.1-0.9,0-1.2-0.2c-0.7-0.4-1.2,0-1.7,0.5c-3.8,3.7-7.7,7.5-11.5,11.2c-1,1-2.3,1.8-1.5,3.6c0,0.1,0,0.2,0,0.2
					c-0.2,0.7,0.2,1,0.8,1.2c2.9,1.2,5.8,2.5,8.7,3.8c0.8,0.4,1.2,0.3,1.8-0.4c2.1-2.4,5.7-2.5,8-0.3c2.1,2,2.3,5.6,0.2,7.7
					c-2.2,2.4-5.7,2.5-8,0.2c-0.6-0.6-1-0.5-1.6-0.1c-4.8,3-8.6,6.9-11.7,11.6c-0.2,0.3-0.3,0.5,0,0.8c1.4,1.3,1.5,2.9,1,4.6
					c-0.1,0.4,0,0.6,0.3,0.9c1.8,1.8,3.5,3.5,5.3,5.3c2.5,2.6,5.1,5.2,7.5,7.8c0.7,0.7,1.3,0.3,2,0.2c0.6-0.1,0.6-0.5,0.6-0.9
					c0.3-3.9,0.6-7.7,0.9-11.6c0-0.6-0.2-0.9-0.8-1.2c-0.7-0.4-1.4-0.9-1.9-1.6c-1.3-2-0.6-4.6,1.6-5.9c2-1.1,4.8-0.2,5.7,2
					c0.9,2.4,0.2,4.4-2.2,5.5c-0.8,0.4-1,0.7-1,1.5c-0.2,3.7-0.6,7.4-0.8,11.1c0,0.3-0.2,0.6,0.2,0.9c1.9-1.1,3.8-2.3,5.6-3.5
					c2.5-1.6,5-3.3,7.5-4.7c0.7-0.4,1-0.8,0.7-1.6c-0.6-2.3,0.2-4.6,2.1-6c2-1.4,4-1.4,6.1-0.3c3.2,1.8,3.8,6.7,0.9,9
					c-2.4,1.9-4.9,2-7.4,0c-0.5-0.4-0.8-0.5-1.4-0.2c-0.8,0.3-1.3,0.9-2,1.3c-3.4,2.1-6.9,4.3-10.3,6.5c-0.3,0.2-0.7,0.2-0.6,0.7
					c0.1,0.7,1.5,1.9,2.3,1.9c5.9,0.1,11.9,0.2,17.8,0.3c0.6,0,0.9-0.2,1.3-0.7c1.1-1.8,2.7-2.5,4.8-1.9c0.6,0.2,1,0,1.4-0.4
					c1.2-1.2,2.3-2.3,3.5-3.4c3.1-3,6.2-6,9.4-9c0.5-0.5,0.7-0.9,0.5-1.6c-0.4-1.5,0-2.8,1-3.9c0.4-0.4,0.4-0.8,0.1-1.3
					c-1.5-2.5-3.3-4.8-5.3-7c-0.6-0.6-1-0.7-1.7-0.2c-2.2,1.4-5,0.9-6.8-1c-1.8-1.9-2.1-4.9-0.5-7c1.5-2.2,4.3-3,6.7-2
					c2.4,1,4.2,3.6,3.3,6.1c-0.8,2.1-0.2,3.4,1.3,4.6c0.1,0,0.1,0.1,0.2,0.2C169.8,305.9,171.1,307.9,172.4,310.1z M108.2,309.5
					c1.7-2.2,2.9-4.4,4.7-6.2c2.3-2.3,4.6-4.4,7.3-6.1c0.9-0.6,1.6-1.1,1.1-2.3c-0.2-0.4-0.1-1,0-1.5c0.2-0.7-0.1-1-0.7-1.3
					c-2.5-1.1-5-2.1-7.5-3.3c-1.2-0.6-2.4-1.3-3.5,0.3c-0.1,0.1-0.3,0.2-0.5,0.3c-0.5,0.2-0.6,0.5-0.6,1
					C108.4,296.7,108.3,303,108.2,309.5z M162.5,295.6c-1.5-0.6-3.3,0.1-3.9,1.5c-0.7,1.5,0.1,3.4,1.5,4.1c1.5,0.7,3.4-0.1,4-1.6
					C164.7,298,164,296.3,162.5,295.6z M125.6,297c1.6,0.7,3.3,0,4-1.6c0.6-1.5-0.1-3.4-1.7-4c-1.5-0.6-3.3,0.2-3.9,1.6
					C123.4,294.5,124.1,296.3,125.6,297z M145.9,320.6c1.6,0.7,3.3,0,4-1.6c0.6-1.5,0-3.3-1.5-3.9c-1.5-0.7-3.3,0-4,1.5
					C143.6,318.2,144.3,319.9,145.9,320.6z M154.2,268.3c0.7,0.4,1.8,0,2.1-0.7c0.4-0.8,0.1-1.8-0.7-2.1c-0.7-0.3-1.7,0-2.1,0.7
					C153.2,266.8,153.5,267.9,154.2,268.3z M146.8,292.8c0.3-0.8-0.1-1.8-0.9-2.1c-0.8-0.3-1.8,0.1-2.1,0.9c-0.3,0.7,0.1,1.7,0.9,2
					C145.5,293.9,146.5,293.5,146.8,292.8z M125.5,334.9c0.8,0.4,1.7,0,2.1-0.8c0.3-0.9,0-1.6-0.8-2c-0.7-0.4-1.8,0-2.1,0.8
					C124.4,333.6,124.7,334.5,125.5,334.9z M106.2,314.9c0.7,0.4,1.8,0,2.1-0.8c0.4-0.9,0.1-1.6-0.7-2c-0.7-0.4-1.8-0.1-2.1,0.7
					C105.1,313.6,105.4,314.6,106.2,314.9z M128.7,267.1c0.3-0.8-0.1-1.8-0.9-2.1c-0.8-0.3-1.8,0.1-2.1,0.9c-0.3,0.9,0,1.6,0.8,2
					C127.3,268.3,128.4,267.8,128.7,267.1z M129.4,312.5c0.4-0.7,0-1.7-0.7-2.1c-0.8-0.4-1.8-0.1-2.2,0.7c-0.4,0.8,0,1.8,0.8,2.2
					C128.1,313.7,129.1,313.3,129.4,312.5z M175.3,315.2c0.4-0.8,0-1.7-0.8-2.1c-0.8-0.3-1.8,0.1-2.1,0.9c-0.3,0.9-0.1,1.6,0.8,2
					C174,316.4,175,316,175.3,315.2z M136.5,279.2c0.8,0.4,1.7,0,2.1-0.8c0.3-0.8,0-1.8-0.9-2.1c-0.9-0.3-1.6-0.1-2,0.8
					C135.3,277.9,135.6,278.8,136.5,279.2z M154.5,332.4c-0.8-0.3-1.7,0.1-2,0.9c-0.3,0.8,0.1,1.7,0.8,2c0.7,0.3,1.7-0.1,2-0.7
					C155.7,333.7,155.4,332.8,154.5,332.4z M108.7,286.4c0.4-0.8,0-1.7-0.8-2.1c-0.8-0.3-1.8,0-2.1,0.9c-0.3,0.9-0.1,1.6,0.8,2
					C107.4,287.6,108.3,287.2,108.7,286.4z M175.7,287.6c0.4-0.8,0-1.7-0.8-2.1c-0.8-0.4-1.7,0-2.1,0.8c-0.3,0.7,0,1.7,0.8,2
					C174.4,288.7,175.3,288.4,175.7,287.6z"/>
			</g>
		</g>
	</g>
</g>
</svg>
